<svg xmlns="http://www.w3.org/2000/svg" width="149" height="149" viewBox="0 0 149 149">
  <g id="logo_c_blue" transform="translate(-108.063 -213)">
    <circle id="Ellipse_97" data-name="Ellipse 97" cx="74.5" cy="74.5" r="74.5" transform="translate(108.063 213)" fill="#bae6fe"/>
    <g id="Logo" transform="translate(128.301 190.423) rotate(17)">
      <g id="Group_88" data-name="Group 88" transform="translate(0 17.463) rotate(-7)">
        <path id="Intersection_1" data-name="Intersection 1" d="M3.516,13.119C1.177,16.44-4.973,31.078,8,41.744A47.983,47.983,0,0,0,19.553,46.77C48.766,55.577,88.594,21.7,93.944,16.988,65.925,4.142,46.508,0,33.058,0,11.565,0,5.306,10.578,3.516,13.119Z" transform="translate(25.58 44.179)" fill="none"/>
        <g id="Group_35" data-name="Group 35" transform="matrix(0.891, 0.454, -0.454, 0.891, 44.389, 0)">
          <text id="Hum" stroke-width="1" fill="#9d9cb5" stroke="#e58ee6" transform="matrix(1, 0, 0, -1, 28.093, 65.298)" font-size="5" font-family="Bahnschrift" font-weight="600" letter-spacing="0.005em" opacity="0"><tspan x="0" y="0">Hum</tspan></text>
          <path id="yellow_stripe" data-name="yellow stripe" d="M86.745,0C2.481,2.423.838,32.667.109,37.757s1.33,29.12,33.58,23.3S86.745,0,86.745,0Z" transform="translate(26.832 16.667) rotate(14)" fill="none" stroke="#fffb88" stroke-width="6"/>
          <path id="black_stripe" data-name="black stripe" d="M86.745,0C2.481,2.423.838,32.667.109,37.757s1.33,29.12,33.58,23.3S86.745,0,86.745,0Z" transform="matrix(0.914, -0.407, 0.407, 0.914, 0, 35.282)" fill="none" stroke="#000" stroke-width="5"/>
        </g>
      </g>
      <circle id="Ellipse_79" data-name="Ellipse 79" cx="4" cy="4" r="4" transform="translate(55.412 79.574)"/>
    </g>
  </g>
</svg>
